# xmcd
#
# Track frame offsets:
#	150
#	4098
#	13447
#	19567
#	25632
#	38536
#	44582
#	54620
#	66061
#	84906
#	114140
#	129177
#	150592
#	165549
#
# Disc length: 2634 seconds
#
# Revision: 1
# Processed by: cddbd v1.5.2PL0 Copyright (c) Steve Scherf et al.
# Submitted via: audiograbber 1.83.01
#
DISCID=980a480e
DTITLE=Julith Krishun - VV
DYEAR=2010
DGENRE=Hardcore
TTITLE0=Havvks
TTITLE1=Resettlement in baby yar
TTITLE2=Smile into deaf ears
TTITLE3=Escape of transience
TTITLE4=Smoke in the wind
TTITLE5=Vvolves
TTITLE6=A myth of salt and sin
TTITLE7=Whirling dervish
TTITLE8=Raging robots
TTITLE9=Reflections of the damaged life
TTITLE10=I fuck (with) your attitudes
TTITLE11=Lady consolation
TTITLE12=Lovely birds must fly
TTITLE13=Destroy yourself for Rock 'n' Roll
EXTD=
EXTT0=
EXTT1=
EXTT2=
EXTT3=
EXTT4=
EXTT5=
EXTT6=
EXTT7=
EXTT8=
EXTT9=
EXTT10=
EXTT11=
EXTT12=
EXTT13=
PLAYORDER=
